<svg version="1.1" baseProfile="full" width="512" height="512" viewBox="50 70 400 400" xmlns="http://www.w3.org/2000/svg"><rect x="0" y="0" width="600" height="600" fill="#fdf5e6"></rect><g><path d="M 345.86445433757416 305.0931751530704 L 258.41629033378916 358.3714879301011 L 168.55183599621498 309.27831277703075 L 166.13554566242584 206.90682484692962 L 253.58370966621084 153.62851206989887 L 343.448164003785 202.7216872229692 Z" stroke="#b51a1a" stroke-width="12" fill="none"></path><path d="M 258.41629033378916 358.3714879301011 L 166.13554566242584 206.90682484692962 L 343.448164003785 202.7216872229692 Z" stroke="#b51a1a" stroke-width="12" fill="none"></path><path d="M 212.2759179981075 282.6391563885154 L 254.79185483310542 204.8142560349494 L 300.9322271687871 280.54658757653516 Z" stroke="#b51a1a" stroke-width="12" fill="none"></path><path d="M 345.86445433757416 305.0931751530704 L 300.9322271687871 280.54658757653516 Z" stroke="#b51a1a" stroke-width="12" fill="none"></path><path d="M 168.55183599621498 309.27831277703075 L 212.2759179981075 282.6391563885154 Z" stroke="#b51a1a" stroke-width="12" fill="none"></path><path d="M 253.58370966621084 153.62851206989887 L 254.79185483310542 204.8142560349494 Z" stroke="#b51a1a" stroke-width="12" fill="none"></path></g><g stroke="#b51a1a" stroke-width="12" fill="none"><rect x="102.39999999999998" y="102.39999999999998" width="307.20000000000005" height="307.20000000000005"></rect><path d="M 82.39999999999998 122.39999999999998
            a 20 20 0 0 1 20 -20"></path><path d="M 102.39999999999998 449.6
            A 10 10 0 0 1 102.39999999999998 409.6"></path><path d="M 404.6 449.6
            A 300 100 0 0 1 404.6 409.6"></path><line x1="102.39999999999998" y1="449.6" x2="409.6" y2="449.6"></line><line x1="82.39999999999998" y1="122.39999999999998" x2="82.39999999999998" y2="429.6"></line></g></svg>
