<svg version="1.1" baseProfile="full" width="48" height="48" viewBox="0 0 512 512" xmlns="http://www.w3.org/2000/svg"><g><path d="M 345.86445433757416 305.0931751530704 L 258.41629033378916 358.3714879301011 L 168.55183599621498 309.27831277703075 L 166.13554566242584 206.90682484692962 L 253.58370966621084 153.62851206989887 L 343.448164003785 202.7216872229692 Z" stroke="black" stroke-width="10" fill="none"></path><path d="M 258.41629033378916 358.3714879301011 L 166.13554566242584 206.90682484692962 L 343.448164003785 202.7216872229692 Z" stroke="black" stroke-width="10" fill="none"></path><path d="M 212.2759179981075 282.6391563885154 L 254.79185483310542 204.8142560349494 L 300.9322271687871 280.54658757653516 Z" stroke="black" stroke-width="10" fill="none"></path><path d="M 345.86445433757416 305.0931751530704 L 300.9322271687871 280.54658757653516 Z" stroke="black" stroke-width="10" fill="none"></path><path d="M 168.55183599621498 309.27831277703075 L 212.2759179981075 282.6391563885154 Z" stroke="black" stroke-width="10" fill="none"></path><path d="M 253.58370966621084 153.62851206989887 L 254.79185483310542 204.8142560349494 Z" stroke="black" stroke-width="10" fill="none"></path></g><g stroke="black" stroke-width="10" fill="none"><rect x="102.39999999999998" y="71.67999999999998" width="307.20000000000005" height="368.64000000000004"></rect><path d="M 82.39999999999998 91.67999999999998 
            a 20 20 0 0 1 20 -20"></path><path d="M 102.39999999999998 480.32000000000005 
            A 10 10 0 0 1 102.39999999999998 440.32000000000005"></path><path d="M 404.6 480.32000000000005 
            A 300 100 0 0 1 404.6 440.32000000000005"></path><line x1="102.39999999999998" y1="480.32000000000005" x2="409.6" y2="480.32000000000005"></line><line x1="82.39999999999998" y1="91.67999999999998" x2="82.39999999999998" y2="460.32000000000005"></line></g></svg>