<svg version="1.1" baseProfile="full" width="512" height="512" xmlns="http://www.w3.org/2000/svg"><g><path d="M 330.88704528131177 296.91097929422534 L 258.01357527815765 341.3095732750843 L 183.12652999684582 300.39859398085895 L 181.1129547186882 215.0890207057747 L 253.98642472184235 170.69042672491574 L 328.8734700031541 211.601406019141 Z" stroke="black" stroke-width="3" fill="none"></path><path d="M 258.01357527815765 341.3095732750843 L 181.1129547186882 215.0890207057747 L 328.8734700031541 211.601406019141 Z" stroke="black" stroke-width="3" fill="none"></path><path d="M 219.56326499842294 278.1992969904295 L 254.99321236092118 213.34521336245786 L 293.4435226406559 276.45548964711264 Z" stroke="black" stroke-width="3" fill="none"></path><path d="M 330.88704528131177 296.91097929422534 L 293.4435226406559 276.45548964711264 Z" stroke="black" stroke-width="3" fill="none"></path><path d="M 183.12652999684582 300.39859398085895 L 219.56326499842294 278.1992969904295 Z" stroke="black" stroke-width="3" fill="none"></path><path d="M 253.98642472184235 170.69042672491574 L 254.99321236092118 213.34521336245786 Z" stroke="black" stroke-width="3" fill="none"></path></g><g stroke="black" stroke-width="3" fill="none"><rect x="128" y="102.4" width="256" height="307.2"></rect><path d="M 108 122.4 
            a 20 20 0 0 1 20 -20"></path><path d="M 128 449.6 
            A 10 10 0 0 1 128 409.6"></path><path d="M 379 449.6 
            A 300 100 0 0 1 379 409.6"></path><line x1="128" y1="449.6" x2="384" y2="449.6"></line><line x1="108" y1="122.4" x2="108" y2="429.6"></line></g></svg>